<svg xmlns="http://www.w3.org/2000/svg" version="1.1" xmlns:xlink="http://www.w3.org/1999/xlink" xmlns:svgjs="http://svgjs.com/svgjs" width="512" height="512" x="0" y="0" viewBox="0 0 682.667 682.667" style="enable-background:new 0 0 512 512" xml:space="preserve" class=""><g><defs><clipPath id="a" clipPathUnits="userSpaceOnUse"><path d="M0 512h512V0H0Z" fill="#000000" data-original="#000000" class=""></path></clipPath></defs><g clip-path="url(#a)" transform="matrix(1.33333 0 0 -1.33333 0 682.667)"><path d="M0 0h-40.013c-51.136 0-92.59-41.453-92.59-92.589v-274.687h94.29c5.829 17.991 8.988 37.161 8.988 57.051v183.666H-.943c34.777 0 63.765 27.664 64.217 62.44C63.732-28.787 35.229 0 0 0" style="fill-opacity:1;fill-rule:nonzero;stroke:none" transform="translate(287.573 504.486)" fill="#70dcba" data-original="#70dcba" class=""></path><path d="M0 0v190.921c0 50.795 40.899 92.03 91.562 92.589H-91.659c-34.777 0-63.765-27.663-64.217-62.438-.459-35.334 28.044-64.121 63.273-64.121h29.322V-26.715c0-33.228-27.189-60.449-60.417-60.198-35.395.268-64.128-28.523-63.769-63.937.355-35.084 30.266-63.001 65.351-62.615 81.24.893 151.952 54.213 176.406 129.698C21.262-68.989 0-36.184 0 0" style="fill-opacity:1;fill-rule:nonzero;stroke:none" transform="translate(194.97 220.977)" fill="#18c08b" data-original="#18c08b" class=""></path><path d="M0 0a21.43 21.43 0 0 1-11.8 16.129l-132.597 61.505a21.296 21.296 0 0 1-16.377 1.011 21.296 21.296 0 0 1-12.291-10.868 21.287 21.287 0 0 1-1.01-16.374 21.296 21.296 0 0 1 10.866-12.293L-40.76-17.439l13.713-72.197 21.145-13.88 22.082 14.63z" style="fill-opacity:1;fill-rule:nonzero;stroke:none" transform="translate(348.795 346.18)" fill="#ea5b70" data-original="#ea5b70" class=""></path><path d="M0 0h-59.429c-22.388 0-40.539-18.15-40.539-40.539v-205.452c0-22.389 18.151-40.538 40.539-40.538h41.618c10.97 0 20.085 8.455 20.91 19.394l17.81 244.592C21.825-10.376 12.201 0 0 0" style="fill-opacity:1;fill-rule:nonzero;stroke:none" transform="translate(483.53 294.03)" fill="#b9f0ff" data-original="#b9f0ff" class=""></path><path d="M0 0v230.824c0 15.441 12.517 27.958 27.957 27.958H-85.989c-12.201 0-21.825-10.377-20.909-22.542L-89.087-8.353c.823-10.939 9.939-19.394 20.908-19.394H24.58C10.733-26.079 0-14.297 0 0" style="fill-opacity:1;fill-rule:nonzero;stroke:none" transform="translate(397.542 35.247)" fill="#7ce3ff" data-original="#7ce3ff"></path><path d="M0 0c0-12.911-13.143-23.377-29.354-23.377C-45.567-23.377-58.71-12.911-58.71 0s13.143 23.377 29.356 23.377C-13.143 23.377 0 12.911 0 0" style="fill-opacity:1;fill-rule:nonzero;stroke:none" transform="translate(144.769 420.884)" fill="#ff8e9e" data-original="#ff8e9e" class=""></path><path d="M0 0c0-12.911 13.143-23.377 29.354-23.377 16.213 0 29.355 10.466 29.355 23.377S45.567 23.377 29.354 23.377C13.143 23.377 0 12.911 0 0" style="fill-opacity:1;fill-rule:nonzero;stroke:none" transform="translate(245.173 420.884)" fill="#ff8e9e" data-original="#ff8e9e" class=""></path><path d="M0 0c0 17.239 13.975 31.214 31.213 31.214 17.239 0 31.214-13.975 31.214-31.214 0-17.238-13.975-11.213-31.214-11.213C13.975-11.213 0-17.238 0 0" style="fill-opacity:1;fill-rule:nonzero;stroke:none" transform="translate(241.703 442.786)" fill="#ffffff" data-original="#ffffff" class=""></path><path d="M0 0c0 17.239-13.975 31.214-31.213 31.214-17.239 0-31.214-13.975-31.214-31.214 0-17.238 13.975-11.213 31.214-11.213C-13.975-11.213 0-17.238 0 0" style="fill-opacity:1;fill-rule:nonzero;stroke:none" transform="translate(148.239 442.786)" fill="#ffffff" data-original="#ffffff" class=""></path><path d="M0 0h-73.273l-13.98-13.053v-146.884l13.98-10.999h42.174c10.487 0 19.193 8.101 19.949 18.56z" style="fill-opacity:1;fill-rule:nonzero;stroke:none" transform="translate(470.815 222.389)" fill="#fce3a0" data-original="#fce3a0" class=""></path><path d="M0 0h-73.274l11.15-152.376c.756-10.459 9.462-18.56 19.948-18.56H0Z" style="fill-opacity:1;fill-rule:nonzero;stroke:none" transform="translate(397.542 222.389)" fill="#ffce71" data-original="#ffce71"></path><path d="M0 0a7.252 7.252 0 1 1 14.504.002A7.252 7.252 0 0 1 0 0" style="fill-opacity:1;fill-rule:nonzero;stroke:none" transform="translate(123.718 452.04)" fill="#000000" data-original="#000000" class=""></path><path d="m0 0-5.434 28.61a7.499 7.499 0 0 1-4.224 5.41l-122.367 56.512c-7.005 3.464-9.671 11.79-6.343 18.606 3.448 7.063 11.81 9.742 18.635 6.408.045-.023.091-.044.137-.066L12.927 54.011a13.94 13.94 0 0 0 7.612-10.458 5 5 0 0 1 .04-.245L28.462 0Zm162.693 0H43.708l-8.351 45.881a28.933 28.933 0 0 1-15.908 21.638l-.135.064-20.287 9.409c22.946 11.875 38.141 35.404 38.482 61.748.499 38.371-29.828 71.731-71.814 71.731h-184.164c-39.028 0-70.78-31.766-70.78-70.793 0-39.028 31.752-70.78 70.78-70.78h21.822v-22.5a7.5 7.5 0 0 1 15 0v22.5h2.5a7.5 7.5 0 0 1 0 15h-39.322c-30.757 0-55.78 25.023-55.78 55.78s25.023 55.779 55.78 55.779h184.164c33.385 0 57.208-26.27 56.816-56.521-.325-25.009-17.71-46.816-42.333-53.2l-93.398 43.322c-14.176 6.882-31.5 1.258-38.627-13.339-6.935-14.2-1.31-31.56 13.304-38.698l.147-.069 68.307-31.546v-152.674c0-18.662-2.901-37.079-8.622-54.74-23.851-73.622-91.909-123.659-169.394-124.511-32.025-.21-57.423 24.982-57.729 55.201l-.003.571c0 30.759 25.023 55.783 55.781 55.783l.947-.004c37.198 0 67.462 30.37 67.462 67.7V16.398a7.5 7.5 0 0 1-7.5 7.5 7.499 7.499 0 0 1-7.5-7.5v-123.666c0-29.058-23.535-52.7-52.462-52.7l-.947.004c-39.029 0-70.781-31.753-70.781-70.783l.004-.732c.401-39.689 34.329-70.05 72.933-70.05 41.239 0 80.615 13.726 113.879 38.361 32.97 24.418 57.03 57.801 69.579 96.537 6.206 19.156 9.353 39.129 9.353 59.363V38.479L-19.45 22.02l4.298-22.63c-13.623-2.864-23.606-15.445-22.522-29.978l17.812-244.603c1.112-14.765 13.581-26.338 28.388-26.338h136.356c14.806 0 27.276 11.573 28.39 26.356l2.892 39.707a7.502 7.502 0 0 1-6.936 8.026c-4.115.297-7.725-2.805-8.025-6.936l-2.89-39.688c-.526-6.986-6.426-12.458-13.431-12.458H8.526c-7.005 0-12.904 5.471-13.429 12.439-.125 1.718-17.851 244.853-17.851 245.642C-22.754-21.029-16.711-15-9.285-15h171.978c7.725 0 14.028-6.547 13.429-14.498l-12.741-174.957a7.5 7.5 0 0 1 14.961-1.09L191.082-30.6c.053.725.081 1.451.081 2.159C191.163-12.759 178.391 0 162.693 0" style="fill-opacity:1;fill-rule:nonzero;stroke:none" transform="translate(320.837 301.53)" fill="#000000" data-original="#000000" class=""></path><path d="M0 0a7.252 7.252 0 1 1-14.504 0A7.252 7.252 0 0 1 0 0" style="fill-opacity:1;fill-rule:nonzero;stroke:none" transform="translate(266.224 452.04)" fill="#000000" data-original="#000000" class=""></path><path d="M0 0c-.47-6.505-5.946-11.601-12.468-11.601h-84.35c-6.522 0-11.998 5.096-12.468 11.6l-10.569 146.329H10.569Zm-127.917 161.328c-4.356 0-7.793-3.702-7.48-8.04l11.15-154.37c1.034-14.31 13.082-25.519 27.429-25.519h84.35c14.347 0 26.395 11.209 27.429 25.52l11.15 154.369c.315 4.346-3.132 8.04-7.48 8.04z" style="fill-opacity:1;fill-rule:nonzero;stroke:none" transform="translate(452.185 68.56)" fill="#000000" data-original="#000000" class=""></path></g></g></svg>